<svg width="20" height="20" viewBox="0 0 20 20" fill="none" xmlns="http://www.w3.org/2000/svg">
<path d="M11.4421 2.92491L12.9087 5.85825C13.1087 6.26658 13.6421 6.65825 14.0921 6.73325L16.7504 7.17491C18.4504 7.45825 18.8504 8.69158 17.6254 9.90825L15.5587 11.9749C15.2087 12.3249 15.0171 12.9999 15.1254 13.4832L15.7171 16.0416C16.1837 18.0666 15.1087 18.8499 13.3171 17.7916L10.8254 16.3166C10.3754 16.0499 9.63375 16.0499 9.17541 16.3166L6.68375 17.7916C4.90041 18.8499 3.81708 18.0582 4.28375 16.0416L4.87541 13.4832C4.98375 12.9999 4.79208 12.3249 4.44208 11.9749L2.37541 9.90825C1.15875 8.69158 1.55041 7.45825 3.25041 7.17491L5.90875 6.73325C6.35041 6.65825 6.88375 6.26658 7.08375 5.85825L8.55041 2.92491C9.35041 1.33325 10.6504 1.33325 11.4421 2.92491Z" fill="#FFCD1A"/>
</svg>
